<svg xmlns="http://www.w3.org/2000/svg" id="Blk_Mono" data-name="Blk Mono" viewBox="0 0 612 612"><defs><style>.cls-1{fill:#fff}.cls-2{fill:#171000}</style></defs><title>logo_bw</title><rect width="612" height="612"/><polygon points="18.66 583.12 66.08 583.12 66.08 574.29 27.5 574.29 27.5 551.33 61.14 551.33 61.14 542.39 27.5 542.39 27.5 519.43 66.08 519.43 66.08 510.6 18.66 510.6 18.66 583.12" class="cls-1"/><polygon points="132.87 510.5 123.84 510.5 123.84 566.33 85.84 510.5 81.53 510.5 80.8 509.43 80.8 510.5 77.21 510.5 77.21 583.22 86.25 583.22 86.25 527.1 124.45 583.22 128.75 583.22 129.28 584 129.28 583.22 134.46 583.03 132.87 579.86 132.87 510.5" class="cls-1"/><path d="M181.24,517.59a29.32,29.32,0,0,1,24.3,13l.81,1.2h2.75l5.49-4.12-1.42-2.14a38.49,38.49,0,1,0,0,42.76l1.42-2.15-5.49-4.12h-2.75l-.81,1.2a29.36,29.36,0,1,1-24.3-45.68Z" class="cls-1"/><path d="M274.5,533.48a22.9,22.9,0,0,0-22.88-22.88H224.47v72.62h8.64V556.47h16.11l16.39,26.75h10.63l-17.08-28A22.84,22.84,0,0,0,274.5,533.48Zm-41.39-14.24h18.51a14.25,14.25,0,0,1,0,28.49H233.11Z" class="cls-1"/><polygon points="307.17 539.54 285.26 510.5 274.06 510.5 302.7 548.26 302.7 583.22 311.73 583.22 311.73 548.26 340.26 510.5 329.18 510.5 307.17 539.54" class="cls-1"/><path d="M373.77,510.41H346.52v72.91h8.83V556.47h18.42a23,23,0,0,0,0-46.06Zm0,37.22H355.35V519.24h18.42a14.2,14.2,0,0,1,0,28.39Z" class="cls-1"/><polygon points="457.43 510.5 399.93 510.5 399.93 519.53 424.17 519.53 424.17 583.22 433.2 583.22 433.2 519.53 457.43 519.53 457.43 510.5" class="cls-1"/><path d="M493.2,508.47a38.4,38.4,0,1,0,38.39,38.39A38.44,38.44,0,0,0,493.2,508.47Zm0,67.85a29.46,29.46,0,1,1,29.46-29.46A29.54,29.54,0,0,1,493.2,576.32Z" class="cls-1"/><path d="M576.25,555.19a22.94,22.94,0,0,0-7.53-44.59H541.57v72.62h8.64V556.47h16.11l16.38,26.75h10.64Zm-26-36h18.51a14.25,14.25,0,0,1,0,28.49H550.21Z" class="cls-1"/><path d="M307.16,196,166.4,128a15.72,15.72,0,0,0-22.55,14.16V356.58L283.31,465.83a38.68,38.68,0,0,0,47.7,0L470.48,356.58V142.11A15.72,15.72,0,0,0,447.92,128Z" class="cls-1"/><path d="M439.45,160a6.54,6.54,0,0,1,6.53,6.54V344.65L315.9,446.54a14.16,14.16,0,0,1-17.48,0L168.34,344.65V166.51a6.51,6.51,0,0,1,9.37-5.88L307.16,223.2l129.45-62.57a6.51,6.51,0,0,1,2.84-.66m0-5.44h0a11.84,11.84,0,0,0-5.21,1.2L307.16,217.15,180.08,155.73a11.84,11.84,0,0,0-5.21-1.2,12,12,0,0,0-12,12V347.3l2.09,1.64L295.06,450.83a19.6,19.6,0,0,0,24.2,0L449.34,348.94l2.08-1.64V166.51a12,12,0,0,0-12-12Z" class="cls-2"/><path d="M368.86,80.15a91.9,91.9,0,0,1,26.74,40.59A10.61,10.61,0,0,0,410.07,127l7.87-3.56a10.72,10.72,0,0,0,5.68-13.27,121.72,121.72,0,0,0-35-52.53l-1.08-1a122.18,122.18,0,0,0-160.71,0l-1.09,1a121.64,121.64,0,0,0-35,52.43,10.74,10.74,0,0,0,5.68,13.29l7.87,3.55a10.61,10.61,0,0,0,14.47-6.25,91.79,91.79,0,0,1,26.7-40.5l1.09-1a92.16,92.16,0,0,1,121.24,0Z" class="cls-1"/><path d="M320.6,320.58l32.45,35.47a5.76,5.76,0,0,1-4.26,9.65H265.25a5.76,5.76,0,0,1-4.31-9.58l32.43-36.6a31.12,31.12,0,1,1,44.9-27.9S338.32,306.86,320.6,320.58Z" class="cls-2"/></svg>